
<svg
  version="1.0"
  xmlns="http://www.w3.org/2000/svg"
  xmlns:xlink="http://www.w3.org/1999/xlink"
  width="2400"
  height="1800"
>
  
  <rect
    x="0"
    y="0"
    width="100%"
    height="100%"
    fill="#FFFFFF"
    fill-opacity="1"
  ></rect>
  <svg
    version="1.0"
    xmlns="http://www.w3.org/2000/svg"
    xmlns:xlink="http://www.w3.org/1999/xlink"
    x="0"
    y="0"
    width="2400"
    height="1800"
    viewBox="0 0 340.000000 250.000000"
    preserveAspectRatio="xMidYMid meet"
    color-interpolation-filters="sRGB"
  >
    <defs><linearGradient id="92" x1="0%" y1="0%" x2="100%" y2="0%"><stop offset="0%" stop-color="#fa71cd"/> <stop offset="100%" stop-color="#9b59b6"/></linearGradient><linearGradient id="93" x1="0%" y1="0%" x2="100%" y2="0%"><stop offset="0%" stop-color="#f9d423"/> <stop offset="100%" stop-color="#f83600"/></linearGradient><linearGradient id="94" x1="0%" y1="0%" x2="100%" y2="0%"><stop offset="0%" stop-color="#0064d2"/> <stop offset="100%" stop-color="#1cb0f6"/></linearGradient><linearGradient id="95" x1="0%" y1="0%" x2="100%" y2="0%"><stop offset="0%" stop-color="#f00978"/> <stop offset="100%" stop-color="#3f51b1"/></linearGradient><linearGradient id="96" x1="0%" y1="0%" x2="100%" y2="0%"><stop offset="0%" stop-color="#7873f5"/> <stop offset="100%" stop-color="#ec77ab"/></linearGradient><linearGradient id="97" x1="0%" y1="0%" x2="100%" y2="0%"><stop offset="0%" stop-color="#f9d423"/> <stop offset="100%" stop-color="#e14fad"/></linearGradient><linearGradient id="98" x1="0%" y1="0%" x2="100%" y2="0%"><stop offset="0%" stop-color="#009efd"/> <stop offset="100%" stop-color="#2af598"/></linearGradient><linearGradient id="99" x1="0%" y1="0%" x2="100%" y2="0%"><stop offset="0%" stop-color="#ffcc00"/> <stop offset="100%" stop-color="#00b140"/></linearGradient><linearGradient id="100" x1="0%" y1="0%" x2="100%" y2="0%"><stop offset="0%" stop-color="#d51007"/> <stop offset="100%" stop-color="#ff8177"/></linearGradient><linearGradient id="102" x1="0%" y1="0%" x2="100%" y2="0%"><stop offset="0%" stop-color="#a2b6df"/> <stop offset="100%" stop-color="#0c3483"/></linearGradient><linearGradient id="103" x1="0%" y1="0%" x2="100%" y2="0%"><stop offset="0%" stop-color="#7ac5d8"/> <stop offset="100%" stop-color="#eea2a2"/></linearGradient><linearGradient id="104" x1="0%" y1="0%" x2="100%" y2="0%"><stop offset="0%" stop-color="#00ecbc"/> <stop offset="100%" stop-color="#007adf"/></linearGradient><linearGradient id="105" x1="0%" y1="0%" x2="100%" y2="0%"><stop offset="0%" stop-color="#b88746"/> <stop offset="100%" stop-color="#fdf5a6"/></linearGradient></defs> <g fill="#02000b" class="iconblsvg-g iconsvg" transform="translate(65.11216735839844,109.33216571807861)"><g class="tp-name"><g transform="translate(0, 2.6115585296615595)"><g transform="scale(1)"><path d="M19.81-12.01L19.81-0.45Q12.79 0.3 6.9 0.3L6.9 0.3Q3.96 0.3 2.58-1.08 1.2-2.46 1.2-5.4L1.2-5.4 1.2-15.01Q1.2-18.16 2.63-19.58 4.05-21.01 7.2-21.01L7.2-21.01 18.01-21.01 18.01-16.81 8.4-16.81Q6.6-16.81 6.6-15.01L6.6-15.01 6.6-5.4Q6.6-4.71 7.01-4.31 7.41-3.9 8.1-3.9L8.1-3.9Q11.56-3.9 14.41-4.05L14.41-4.05 14.41-8.4 10.51-8.4 10.51-12.01 19.81-12.01ZM38.72-11.41L38.72-4.5Q38.72-2.25 37.44-0.98 36.17 0.3 33.92 0.3L33.92 0.3 27.01 0.3Q24.76 0.3 23.49-0.98 22.21-2.25 22.21-4.5L22.21-4.5 22.21-11.41Q22.21-13.66 23.49-14.93 24.76-16.21 27.01-16.21L27.01-16.21 33.92-16.21Q36.17-16.21 37.44-14.93 38.72-13.66 38.72-11.41L38.72-11.41ZM33.47-4.95L33.47-10.96Q33.47-12.16 32.27-12.16L32.27-12.16 28.66-12.16Q27.46-12.16 27.46-10.96L27.46-10.96 27.46-4.95Q27.46-3.75 28.66-3.75L28.66-3.75 32.27-3.75Q33.47-3.75 33.47-4.95L33.47-4.95ZM48.32-5.1L51.78-15.91 57.33-15.91 51.33 0 45.32 0 39.32-15.91 44.87-15.91 48.32-5.1Z" transform="translate(-1.2000000476837158, 21.010000228881836)"/></g></g> <g transform="translate(59.130001068115234, 0)"><g><g class="imagesvg"><g><rect fill="#02000b" fill-opacity="0" stroke-width="2" x="0" y="0" width="31.335667833916958" height="31.335667833916958" class="image-rect"/> <svg filter="url(#colors5050572063)" x="0" y="0" width="31.335667833916958" height="31.335667833916958" filtersec="colorsf9192855826" class="image-svg-svg primary" style="overflow: visible;"><svg xmlns="http://www.w3.org/2000/svg" xmlns:xlink="http://www.w3.org/1999/xlink" viewBox="8 8 84 84" version="1.1" x="0px" y="0px"><desc>Created with Sketch.</desc><g stroke="none" stroke-width="1" fill-rule="evenodd"><g fill-rule="nonzero"><path d="M50,90 C27.90861,90 10,72.09139 10,50 C10,27.90861 27.90861,10 50,10 C72.09139,10 90,27.90861 90,50 C90,72.09139 72.09139,90 50,90 Z M50,84 C68.7776815,84 84,68.7776815 84,50 C84,31.2223185 68.7776815,16 50,16 C31.2223185,16 16,31.2223185 16,50 C16,68.7776815 31.2223185,84 50,84 Z M50,75 C36.1928813,75 25,63.8071187 25,50 C25,36.1928813 36.1928813,25 50,25 C63.8071187,25 75,36.1928813 75,50 C75,63.8071187 63.8071187,75 50,75 Z M50.119,31.9997196 L46.1570556,44.117356 L33,44.117356 L43.6344444,51.8337622 L39.6573889,64 L50.0179444,56.465849 L60.4011667,64 L56.4722778,51.7730105 L67,44.117356 L54.0129444,44.117356 L50.119,31.9997196 Z"/></g></g></svg></svg> <defs><filter id="colors5050572063"><feColorMatrix type="matrix" values="0 0 0 0 0.01171875  0 0 0 0 0.671875  0 0 0 0 0.92578125  0 0 0 1 0" class="icon-feColorMatrix "/></filter> <filter id="colorsf9192855826"><feColorMatrix type="matrix" values="0 0 0 0 0.99609375  0 0 0 0 0.99609375  0 0 0 0 0.99609375  0 0 0 1 0" class="icon-fecolormatrix"/></filter> <filter id="colorsb9527642251"><feColorMatrix type="matrix" values="0 0 0 0 0  0 0 0 0 0  0 0 0 0 0  0 0 0 1 0" class="icon-fecolormatrix"/></filter></defs></g></g></g></g> <g fill="#02000b" transform="translate(93.46566963195801, 2.6115585296615595)"><g transform="scale(1)"><path d="M1.17-0.3L1.17-4.35Q9.39-3.9 12.31-3.9L12.31-3.9Q13-3.9 13.4-4.31 13.81-4.71 13.81-5.4L13.81-5.4 13.81-8.1 6.9-8.1Q3.75-8.1 2.33-9.53 0.9-10.96 0.9-14.11L0.9-14.11 0.9-15.01Q0.9-18.16 2.33-19.58 3.75-21.01 6.9-21.01L6.9-21.01 17.44-21.01 17.44-16.81 8.1-16.81Q6.3-16.81 6.3-15.01L6.3-15.01 6.3-14.41Q6.3-12.61 8.1-12.61L8.1-12.61 13.51-12.61Q16.45-12.61 17.83-11.23 19.21-9.84 19.21-6.9L19.21-6.9 19.21-5.4Q19.21-2.46 17.83-1.08 16.45 0.3 13.51 0.3L13.51 0.3Q11.98 0.3 10.27 0.24L10.27 0.24 7.5 0.12Q4.44-0.03 1.17-0.3L1.17-0.3ZM35.72-4.2L35.72-0.3Q30.11 0.3 25.81 0.3L25.81 0.3Q23.77 0.3 22.54-0.93 21.31-2.16 21.31-4.2L21.31-4.2 21.31-11.11Q21.31-13.36 22.59-14.63 23.86-15.91 26.11-15.91L26.11-15.91 35.72-15.91 35.72-11.86 27.76-11.86Q26.56-11.86 26.56-10.66L26.56-10.66 26.56-4.8Q26.56-4.35 26.86-4.05 27.16-3.75 27.61-3.75L27.61-3.75Q30.32-3.75 35.72-4.2L35.72-4.2ZM49.82-11.56L47.27-11.56Q45.38-11.56 43.37-10.66L43.37-10.66 43.37 0 38.12 0 38.12-15.91 42.77-15.91 43.07-13.96Q45.65-16.21 48.47-16.21L48.47-16.21 49.82-16.21 49.82-11.56ZM56.28-3.9L57.03-3.9Q58.62-3.9 60.63-4.5L60.63-4.5 60.63-6.3 56.28-6.3Q55.83-6.3 55.53-6 55.23-5.7 55.23-5.25L55.23-5.25 55.23-4.95Q55.23-4.5 55.53-4.2 55.83-3.9 56.28-3.9L56.28-3.9ZM51.48-11.86L51.48-15.61Q56.97-16.21 61.38-16.21L61.38-16.21Q63.42-16.21 64.65-14.98 65.88-13.75 65.88-11.71L65.88-11.71 65.88 0 61.23 0 60.93-1.5Q59.52-0.57 58.03-0.14 56.55 0.3 55.53 0.3L55.53 0.3 54.48 0.3Q52.44 0.3 51.21-0.93 49.97-2.16 49.97-4.2L49.97-4.2 49.97-5.55Q49.97-7.59 51.21-8.82 52.44-10.06 54.48-10.06L54.48-10.06 60.63-10.06 60.63-11.26Q60.63-11.71 60.33-12.01 60.03-12.31 59.58-12.31L59.58-12.31Q57.63-12.31 55.27-12.13 52.92-11.95 51.48-11.86L51.48-11.86ZM78.49-11.86L77.44-11.86Q75.85-11.86 73.84-11.26L73.84-11.26 73.84-4.05 78.34-4.05Q79.54-4.05 79.54-5.25L79.54-5.25 79.54-10.81Q79.54-11.26 79.24-11.56 78.94-11.86 78.49-11.86L78.49-11.86ZM79.99 0L73.84 0 73.84 5.1 68.58 5.1 68.58-15.91 73.24-15.91 73.54-14.41Q74.95-15.34 76.43-15.77 77.92-16.21 78.94-16.21L78.94-16.21 80.29-16.21Q82.33-16.21 83.56-14.98 84.79-13.75 84.79-11.71L84.79-11.71 84.79-4.8Q84.79-2.55 83.52-1.28 82.24 0 79.99 0L79.99 0ZM96.35-12.46L93.65-12.46Q92.45-12.46 92.45-11.26L92.45-11.26 92.45-9.6 97.55-9.6 97.55-11.26Q97.55-12.46 96.35-12.46L96.35-12.46ZM102.2-4.05L102.2-0.3Q96.41 0.3 91.7 0.3L91.7 0.3Q89.65 0.3 88.42-0.93 87.19-2.16 87.19-4.2L87.19-4.2 87.19-11.41Q87.19-13.66 88.47-14.93 89.74-16.21 92-16.21L92-16.21 98-16.21Q100.25-16.21 101.53-14.93 102.8-13.66 102.8-11.41L102.8-11.41 102.8-5.85 92.45-5.85 92.45-4.65Q92.45-4.2 92.75-3.9 93.05-3.6 93.5-3.6L93.5-3.6Q96.47-3.6 102.2-4.05L102.2-4.05ZM117.21-11.56L114.66-11.56Q112.77-11.56 110.76-10.66L110.76-10.66 110.76 0 105.5 0 105.5-15.91 110.16-15.91 110.46-13.96Q113.04-16.21 115.86-16.21L115.86-16.21 117.21-16.21 117.21-11.56Z" transform="translate(-0.9000000357627869, 21.010000228881836)"/></g></g></g> </g><defs v-gra="od"/>
  </svg>
</svg>


